# MagicaVoxel @ Ephtracy

# group
o 

# material
mtllib sword.mtl
usemtl palette

# normals
vn -1 0 0
vn 1 0 0
vn 0 0 1
vn 0 0 -1
vn 0 -1 0
vn 0 1 0

# texcoords
vt 0.0410156 0.5
vt 0.373047 0.5
vt 0.962891 0.5
vt 0.966797 0.5

# verts
v 1.2 -4.1 -6.4
v 1.2 -4.1 -7.2
v 1.2 -3.9 -6.4
v 1.2 -3.9 -7.2
v 1.3 -4.2 -6.4
v 1.3 -4.2 -7.2
v 1.3 -4.1 -6.4
v 1.3 -4.1 -7.2
v 1.3 -3.9 -6.5
v 1.3 -3.9 -7.1
v 1.3 -3.8 -6.5
v 1.3 -3.8 -7.1
v 1.6 -5 -6.5
v 1.6 -5 -7.1
v 1.6 -4.2 -6.5
v 1.6 -4.2 -7.1
v 1.7 -4.9 -6.4
v 1.7 -4.9 -6.5
v 1.7 -4.9 -7.1
v 1.7 -4.9 -7.2
v 1.7 -4.2 -6.4
v 1.7 -4.2 -6.5
v 1.7 -4.2 -7.1
v 1.7 -4.2 -7.2
v 2.8 -7.3 -6.4
v 2.8 -7.3 -7.2
v 2.8 -6.7 -6.4
v 2.8 -6.7 -7.2
v 2.9 -7.4 -6.4
v 2.9 -7.4 -7.2
v 2.9 -7.3 -6.4
v 2.9 -7.3 -7.2
v 2.9 -6.7 -6.4
v 2.9 -6.7 -7.2
v 2.9 -6.6 -6.4
v 2.9 -6.6 -7.2
v 3.2 -7.7 -6.4
v 3.2 -7.7 -7.2
v 3.2 -7.4 -6.1
v 3.2 -7.4 -6.4
v 3.2 -7.4 -7.2
v 3.2 -7.4 -7.5
v 3.2 -7.3 -6
v 3.2 -7.3 -6.1
v 3.2 -7.3 -7.5
v 3.2 -7.3 -7.6
v 3.2 -6.7 -6
v 3.2 -6.7 -6.1
v 3.2 -6.7 -7.5
v 3.2 -6.7 -7.6
v 3.2 -6.6 -6.1
v 3.2 -6.6 -6.4
v 3.2 -6.6 -6.5
v 3.2 -6.6 -7.1
v 3.2 -6.6 -7.2
v 3.2 -6.6 -7.5
v 3.2 -5 -6.5
v 3.2 -5 -6.6
v 3.2 -5 -7.1
v 3.2 -4.1 -6.5
v 3.2 -4.1 -7.1
v 3.2 3.8 -6.5
v 3.2 3.8 -7.1
v 3.3 -7.8 -6.5
v 3.3 -7.8 -7.1
v 3.3 -7.7 -6.5
v 3.3 -7.7 -7.1
v 3.3 -6.6 -6.4
v 3.3 -6.6 -6.5
v 3.3 -6.6 -7.1
v 3.3 -6.6 -7.2
v 3.3 -5 -6.4
v 3.3 -5 -6.5
v 3.3 -5 -7.1
v 3.3 -5 -7.2
v 3.3 -4.2 -6.5
v 3.3 -4.2 -7.1
v 3.3 -4.1 -6.4
v 3.3 -4.1 -6.5
v 3.3 -4.1 -7.1
v 3.3 -4.1 -7.2
v 3.3 3.8 -6.4
v 3.3 3.8 -6.5
v 3.3 3.8 -7.1
v 3.3 3.8 -7.2
v 3.3 4 -6.5
v 3.3 4 -7.1
v 3.4 4 -6.6
v 3.4 4 -7
v 3.4 4.2 -6.6
v 3.4 4.2 -7
v 3.5 4.2 -6.7
v 3.5 4.2 -6.9
v 3.5 4.4 -6.7
v 3.5 4.4 -6.9
v 5.2 -4.3 -7.1
v 5.2 -4.3 -7.2
v 5.2 -4.2 -6.5
v 5.2 -4.2 -7.1
v 5.2 -3.9 -7.1
v 5.2 -3.9 -7.2
v 5.2 -3.8 -6.5
v 5.2 -3.8 -7.1
v 5.3 -4.3 -6.4
v 5.3 -4.3 -6.5
v 5.3 -3.9 -6.4
v 5.3 -3.9 -6.5
v 1.7 -5 -6.5
v 1.7 -5 -6.6
v 1.7 -4.9 -6.5
v 1.7 -4.9 -6.6
v 1.9 -4.3 -6.4
v 1.9 -4.3 -6.5
v 1.9 -4.3 -7.1
v 1.9 -4.3 -7.2
v 1.9 -3.9 -6.4
v 1.9 -3.9 -6.5
v 1.9 -3.9 -7.1
v 1.9 -3.9 -7.2
v 2 -4.2 -6.5
v 2 -4.2 -7.1
v 2 -3.8 -6.5
v 2 -3.8 -7.1
v 3.7 4.2 -6.7
v 3.7 4.2 -6.9
v 3.7 4.4 -6.7
v 3.7 4.4 -6.9
v 3.8 4 -6.6
v 3.8 4 -7
v 3.8 4.2 -6.6
v 3.8 4.2 -7
v 3.9 -7.8 -6.5
v 3.9 -7.8 -7.1
v 3.9 -7.7 -6.5
v 3.9 -7.7 -7.1
v 3.9 -6.6 -6.4
v 3.9 -6.6 -6.5
v 3.9 -6.6 -7.1
v 3.9 -6.6 -7.2
v 3.9 -5 -6.4
v 3.9 -5 -6.5
v 3.9 -5 -7.1
v 3.9 -5 -7.2
v 3.9 -4.2 -6.5
v 3.9 -4.2 -7.1
v 3.9 -4.1 -6.4
v 3.9 -4.1 -6.5
v 3.9 -4.1 -7.1
v 3.9 -4.1 -7.2
v 3.9 3.8 -6.4
v 3.9 3.8 -6.5
v 3.9 3.8 -7.1
v 3.9 3.8 -7.2
v 3.9 4 -6.5
v 3.9 4 -7.1
v 4 -7.7 -6.4
v 4 -7.7 -7.2
v 4 -7.4 -6.1
v 4 -7.4 -6.4
v 4 -7.4 -7.2
v 4 -7.4 -7.5
v 4 -7.3 -6
v 4 -7.3 -6.1
v 4 -7.3 -7.5
v 4 -7.3 -7.6
v 4 -6.7 -6
v 4 -6.7 -6.1
v 4 -6.7 -7.5
v 4 -6.7 -7.6
v 4 -6.6 -6.1
v 4 -6.6 -6.4
v 4 -6.6 -6.5
v 4 -6.6 -7.1
v 4 -6.6 -7.2
v 4 -6.6 -7.5
v 4 -5 -6.5
v 4 -5 -6.6
v 4 -5 -7.1
v 4 -4.1 -6.5
v 4 -4.1 -7.1
v 4 3.8 -6.5
v 4 3.8 -7.1
v 4.3 -7.4 -6.4
v 4.3 -7.4 -7.2
v 4.3 -7.3 -6.4
v 4.3 -7.3 -7.2
v 4.3 -6.7 -6.4
v 4.3 -6.7 -7.2
v 4.3 -6.6 -6.4
v 4.3 -6.6 -7.2
v 4.4 -7.3 -6.4
v 4.4 -7.3 -7.2
v 4.4 -6.7 -6.4
v 4.4 -6.7 -7.2
v 5.5 -4.9 -6.4
v 5.5 -4.9 -6.5
v 5.5 -4.9 -7.1
v 5.5 -4.9 -7.2
v 5.5 -4.2 -6.4
v 5.5 -4.2 -6.5
v 5.5 -4.2 -7.1
v 5.5 -4.2 -7.2
v 5.6 -5 -6.6
v 5.6 -5 -7.1
v 5.6 -4.9 -6.5
v 5.6 -4.9 -6.6
v 5.6 -4.2 -6.5
v 5.6 -4.2 -7.1
v 5.9 -4.2 -6.4
v 5.9 -4.2 -7.2
v 5.9 -4.1 -6.4
v 5.9 -4.1 -7.2
v 5.9 -3.9 -6.5
v 5.9 -3.9 -7.1
v 5.9 -3.8 -6.5
v 5.9 -3.8 -7.1
v 6 -4.1 -6.4
v 6 -4.1 -7.2
v 6 -3.9 -6.4
v 6 -3.9 -7.2
v 3.2 -7.3 -6
v 3.2 -6.7 -6
v 4 -7.3 -6
v 4 -6.7 -6
v 3.2 -7.4 -6.1
v 3.2 -7.3 -6.1
v 3.2 -6.7 -6.1
v 3.2 -6.6 -6.1
v 4 -7.4 -6.1
v 4 -7.3 -6.1
v 4 -6.7 -6.1
v 4 -6.6 -6.1
v 1.2 -4.1 -6.4
v 1.2 -3.9 -6.4
v 1.3 -4.2 -6.4
v 1.3 -4.1 -6.4
v 1.7 -4.9 -6.4
v 1.7 -4.2 -6.4
v 1.9 -4.3 -6.4
v 1.9 -3.9 -6.4
v 2.4 -4.9 -6.4
v 2.4 -4.3 -6.4
v 2.8 -7.3 -6.4
v 2.8 -6.7 -6.4
v 2.9 -7.4 -6.4
v 2.9 -7.3 -6.4
v 2.9 -6.7 -6.4
v 2.9 -6.6 -6.4
v 3.2 -7.7 -6.4
v 3.2 -7.4 -6.4
v 3.2 -6.6 -6.4
v 3.3 -6.6 -6.4
v 3.3 -5 -6.4
v 3.3 -4.1 -6.4
v 3.3 3.8 -6.4
v 3.9 -6.6 -6.4
v 3.9 -5 -6.4
v 3.9 -4.1 -6.4
v 3.9 3.8 -6.4
v 4 -7.7 -6.4
v 4 -7.4 -6.4
v 4 -6.6 -6.4
v 4.3 -7.4 -6.4
v 4.3 -7.3 -6.4
v 4.3 -6.7 -6.4
v 4.3 -6.6 -6.4
v 4.4 -7.3 -6.4
v 4.4 -6.7 -6.4
v 4.8 -4.9 -6.4
v 4.8 -4.3 -6.4
v 5.3 -4.3 -6.4
v 5.3 -3.9 -6.4
v 5.5 -4.9 -6.4
v 5.5 -4.2 -6.4
v 5.9 -4.2 -6.4
v 5.9 -4.1 -6.4
v 6 -4.1 -6.4
v 6 -3.9 -6.4
v 1.3 -3.9 -6.5
v 1.3 -3.8 -6.5
v 1.6 -5 -6.5
v 1.6 -4.2 -6.5
v 1.7 -5 -6.5
v 1.7 -4.9 -6.5
v 1.7 -4.2 -6.5
v 1.9 -4.3 -6.5
v 1.9 -3.9 -6.5
v 2 -4.2 -6.5
v 2 -3.8 -6.5
v 2.4 -4.3 -6.5
v 2.4 -4.2 -6.5
v 3.2 -6.6 -6.5
v 3.2 -5 -6.5
v 3.2 -4.1 -6.5
v 3.2 3.8 -6.5
v 3.3 -7.8 -6.5
v 3.3 -7.7 -6.5
v 3.3 -6.6 -6.5
v 3.3 -5 -6.5
v 3.3 -4.2 -6.5
v 3.3 -4.1 -6.5
v 3.3 3.8 -6.5
v 3.3 4 -6.5
v 3.9 -7.8 -6.5
v 3.9 -7.7 -6.5
v 3.9 -6.6 -6.5
v 3.9 -5 -6.5
v 3.9 -4.2 -6.5
v 3.9 -4.1 -6.5
v 3.9 3.8 -6.5
v 3.9 4 -6.5
v 4 -6.6 -6.5
v 4 -5 -6.5
v 4 -4.1 -6.5
v 4 3.8 -6.5
v 4.8 -4.3 -6.5
v 4.8 -4.2 -6.5
v 5.2 -4.2 -6.5
v 5.2 -3.8 -6.5
v 5.3 -4.3 -6.5
v 5.3 -3.9 -6.5
v 5.5 -4.9 -6.5
v 5.5 -4.2 -6.5
v 5.6 -4.9 -6.5
v 5.6 -4.2 -6.5
v 5.9 -3.9 -6.5
v 5.9 -3.8 -6.5
v 1.7 -5 -6.6
v 1.7 -4.9 -6.6
v 2.4 -5 -6.6
v 2.4 -4.9 -6.6
v 3.2 -5 -6.6
v 3.4 4 -6.6
v 3.4 4.2 -6.6
v 3.8 4 -6.6
v 3.8 4.2 -6.6
v 4 -5 -6.6
v 4.8 -5 -6.6
v 4.8 -4.9 -6.6
v 5.6 -5 -6.6
v 5.6 -4.9 -6.6
v 3.5 4.2 -6.7
v 3.5 4.4 -6.7
v 3.7 4.2 -6.7
v 3.7 4.4 -6.7
v 3.5 4.2 -6.9
v 3.5 4.4 -6.9
v 3.7 4.2 -6.9
v 3.7 4.4 -6.9
v 3.4 4 -7
v 3.4 4.2 -7
v 3.8 4 -7
v 3.8 4.2 -7
v 1.3 -3.9 -7.1
v 1.3 -3.8 -7.1
v 1.6 -5 -7.1
v 1.6 -4.2 -7.1
v 1.7 -4.9 -7.1
v 1.7 -4.2 -7.1
v 1.9 -4.3 -7.1
v 1.9 -3.9 -7.1
v 2 -4.2 -7.1
v 2 -3.8 -7.1
v 2.4 -5 -7.1
v 2.4 -4.9 -7.1
v 2.4 -4.3 -7.1
v 2.4 -4.2 -7.1
v 3.2 -6.6 -7.1
v 3.2 -5 -7.1
v 3.2 -4.1 -7.1
v 3.2 3.8 -7.1
v 3.3 -7.8 -7.1
v 3.3 -7.7 -7.1
v 3.3 -6.6 -7.1
v 3.3 -5 -7.1
v 3.3 -4.2 -7.1
v 3.3 -4.1 -7.1
v 3.3 3.8 -7.1
v 3.3 4 -7.1
v 3.9 -7.8 -7.1
v 3.9 -7.7 -7.1
v 3.9 -6.6 -7.1
v 3.9 -5 -7.1
v 3.9 -4.2 -7.1
v 3.9 -4.1 -7.1
v 3.9 3.8 -7.1
v 3.9 4 -7.1
v 4 -6.6 -7.1
v 4 -5 -7.1
v 4 -4.1 -7.1
v 4 3.8 -7.1
v 4.8 -5 -7.1
v 4.8 -4.9 -7.1
v 4.8 -4.3 -7.1
v 4.8 -4.2 -7.1
v 5.2 -4.3 -7.1
v 5.2 -4.2 -7.1
v 5.2 -3.9 -7.1
v 5.2 -3.8 -7.1
v 5.5 -4.9 -7.1
v 5.5 -4.2 -7.1
v 5.6 -5 -7.1
v 5.6 -4.2 -7.1
v 5.9 -3.9 -7.1
v 5.9 -3.8 -7.1
v 1.2 -4.1 -7.2
v 1.2 -3.9 -7.2
v 1.3 -4.2 -7.2
v 1.3 -4.1 -7.2
v 1.7 -4.9 -7.2
v 1.7 -4.2 -7.2
v 1.9 -4.3 -7.2
v 1.9 -3.9 -7.2
v 2.4 -4.9 -7.2
v 2.4 -4.3 -7.2
v 2.8 -7.3 -7.2
v 2.8 -6.7 -7.2
v 2.9 -7.4 -7.2
v 2.9 -7.3 -7.2
v 2.9 -6.7 -7.2
v 2.9 -6.6 -7.2
v 3.2 -7.7 -7.2
v 3.2 -7.4 -7.2
v 3.2 -6.6 -7.2
v 3.3 -6.6 -7.2
v 3.3 -5 -7.2
v 3.3 -4.1 -7.2
v 3.3 3.8 -7.2
v 3.9 -6.6 -7.2
v 3.9 -5 -7.2
v 3.9 -4.1 -7.2
v 3.9 3.8 -7.2
v 4 -7.7 -7.2
v 4 -7.4 -7.2
v 4 -6.6 -7.2
v 4.3 -7.4 -7.2
v 4.3 -7.3 -7.2
v 4.3 -6.7 -7.2
v 4.3 -6.6 -7.2
v 4.4 -7.3 -7.2
v 4.4 -6.7 -7.2
v 4.8 -4.9 -7.2
v 4.8 -4.3 -7.2
v 5.2 -4.3 -7.2
v 5.2 -3.9 -7.2
v 5.5 -4.9 -7.2
v 5.5 -4.2 -7.2
v 5.9 -4.2 -7.2
v 5.9 -4.1 -7.2
v 6 -4.1 -7.2
v 6 -3.9 -7.2
v 3.2 -7.4 -7.5
v 3.2 -7.3 -7.5
v 3.2 -6.7 -7.5
v 3.2 -6.6 -7.5
v 4 -7.4 -7.5
v 4 -7.3 -7.5
v 4 -6.7 -7.5
v 4 -6.6 -7.5
v 3.2 -7.3 -7.6
v 3.2 -6.7 -7.6
v 4 -7.3 -7.6
v 4 -6.7 -7.6
v 3.3 -7.8 -6.5
v 3.9 -7.8 -6.5
v 3.3 -7.8 -7.1
v 3.9 -7.8 -7.1
v 3.2 -7.7 -6.4
v 4 -7.7 -6.4
v 3.3 -7.7 -6.5
v 3.9 -7.7 -6.5
v 3.3 -7.7 -7.1
v 3.9 -7.7 -7.1
v 3.2 -7.7 -7.2
v 4 -7.7 -7.2
v 3.2 -7.4 -6.1
v 4 -7.4 -6.1
v 2.9 -7.4 -6.4
v 3.2 -7.4 -6.4
v 4 -7.4 -6.4
v 4.3 -7.4 -6.4
v 2.9 -7.4 -7.2
v 3.2 -7.4 -7.2
v 4 -7.4 -7.2
v 4.3 -7.4 -7.2
v 3.2 -7.4 -7.5
v 4 -7.4 -7.5
v 3.2 -7.3 -6
v 4 -7.3 -6
v 3.2 -7.3 -6.1
v 4 -7.3 -6.1
v 2.8 -7.3 -6.4
v 2.9 -7.3 -6.4
v 4.3 -7.3 -6.4
v 4.4 -7.3 -6.4
v 2.8 -7.3 -7.2
v 2.9 -7.3 -7.2
v 4.3 -7.3 -7.2
v 4.4 -7.3 -7.2
v 3.2 -7.3 -7.5
v 4 -7.3 -7.5
v 3.2 -7.3 -7.6
v 4 -7.3 -7.6
v 1.6 -5 -6.5
v 1.7 -5 -6.5
v 1.7 -5 -6.6
v 2.4 -5 -6.6
v 3.2 -5 -6.6
v 4 -5 -6.6
v 4.8 -5 -6.6
v 5.6 -5 -6.6
v 1.6 -5 -7.1
v 2.4 -5 -7.1
v 3.2 -5 -7.1
v 4 -5 -7.1
v 4.8 -5 -7.1
v 5.6 -5 -7.1
v 1.7 -4.9 -6.4
v 2.4 -4.9 -6.4
v 4.8 -4.9 -6.4
v 5.5 -4.9 -6.4
v 1.7 -4.9 -6.5
v 5.5 -4.9 -6.5
v 5.6 -4.9 -6.5
v 1.7 -4.9 -6.6
v 2.4 -4.9 -6.6
v 4.8 -4.9 -6.6
v 5.6 -4.9 -6.6
v 1.7 -4.9 -7.1
v 2.4 -4.9 -7.1
v 4.8 -4.9 -7.1
v 5.5 -4.9 -7.1
v 1.7 -4.9 -7.2
v 2.4 -4.9 -7.2
v 4.8 -4.9 -7.2
v 5.5 -4.9 -7.2
v 1.3 -4.2 -6.4
v 1.7 -4.2 -6.4
v 5.5 -4.2 -6.4
v 5.9 -4.2 -6.4
v 1.6 -4.2 -6.5
v 1.7 -4.2 -6.5
v 5.5 -4.2 -6.5
v 5.6 -4.2 -6.5
v 1.6 -4.2 -7.1
v 1.7 -4.2 -7.1
v 5.5 -4.2 -7.1
v 5.6 -4.2 -7.1
v 1.3 -4.2 -7.2
v 1.7 -4.2 -7.2
v 5.5 -4.2 -7.2
v 5.9 -4.2 -7.2
v 1.2 -4.1 -6.4
v 1.3 -4.1 -6.4
v 3.3 -4.1 -6.4
v 3.9 -4.1 -6.4
v 5.9 -4.1 -6.4
v 6 -4.1 -6.4
v 3.2 -4.1 -6.5
v 3.3 -4.1 -6.5
v 3.9 -4.1 -6.5
v 4 -4.1 -6.5
v 3.2 -4.1 -7.1
v 3.3 -4.1 -7.1
v 3.9 -4.1 -7.1
v 4 -4.1 -7.1
v 1.2 -4.1 -7.2
v 1.3 -4.1 -7.2
v 3.3 -4.1 -7.2
v 3.9 -4.1 -7.2
v 5.9 -4.1 -7.2
v 6 -4.1 -7.2
v 3.2 -6.7 -6
v 4 -6.7 -6
v 3.2 -6.7 -6.1
v 4 -6.7 -6.1
v 2.8 -6.7 -6.4
v 2.9 -6.7 -6.4
v 4.3 -6.7 -6.4
v 4.4 -6.7 -6.4
v 2.8 -6.7 -7.2
v 2.9 -6.7 -7.2
v 4.3 -6.7 -7.2
v 4.4 -6.7 -7.2
v 3.2 -6.7 -7.5
v 4 -6.7 -7.5
v 3.2 -6.7 -7.6
v 4 -6.7 -7.6
v 3.2 -6.6 -6.1
v 4 -6.6 -6.1
v 2.9 -6.6 -6.4
v 3.2 -6.6 -6.4
v 3.3 -6.6 -6.4
v 3.9 -6.6 -6.4
v 4 -6.6 -6.4
v 4.3 -6.6 -6.4
v 3.2 -6.6 -6.5
v 3.3 -6.6 -6.5
v 3.9 -6.6 -6.5
v 4 -6.6 -6.5
v 3.2 -6.6 -7.1
v 3.3 -6.6 -7.1
v 3.9 -6.6 -7.1
v 4 -6.6 -7.1
v 2.9 -6.6 -7.2
v 3.2 -6.6 -7.2
v 3.3 -6.6 -7.2
v 3.9 -6.6 -7.2
v 4 -6.6 -7.2
v 4.3 -6.6 -7.2
v 3.2 -6.6 -7.5
v 4 -6.6 -7.5
v 3.3 -5 -6.4
v 3.9 -5 -6.4
v 3.2 -5 -6.5
v 3.3 -5 -6.5
v 3.9 -5 -6.5
v 4 -5 -6.5
v 3.2 -5 -6.6
v 4 -5 -6.6
v 3.3 -5 -7.1
v 3.9 -5 -7.1
v 3.3 -5 -7.2
v 3.9 -5 -7.2
v 1.9 -4.3 -6.4
v 2.4 -4.3 -6.4
v 4.8 -4.3 -6.4
v 5.3 -4.3 -6.4
v 1.9 -4.3 -6.5
v 2.4 -4.3 -6.5
v 4.8 -4.3 -6.5
v 5.3 -4.3 -6.5
v 1.9 -4.3 -7.1
v 2.4 -4.3 -7.1
v 4.8 -4.3 -7.1
v 5.2 -4.3 -7.1
v 1.9 -4.3 -7.2
v 2.4 -4.3 -7.2
v 4.8 -4.3 -7.2
v 5.2 -4.3 -7.2
v 2 -4.2 -6.5
v 2.4 -4.2 -6.5
v 3.3 -4.2 -6.5
v 3.9 -4.2 -6.5
v 4.8 -4.2 -6.5
v 5.2 -4.2 -6.5
v 2 -4.2 -7.1
v 2.4 -4.2 -7.1
v 3.3 -4.2 -7.1
v 3.9 -4.2 -7.1
v 4.8 -4.2 -7.1
v 5.2 -4.2 -7.1
v 1.2 -3.9 -6.4
v 1.9 -3.9 -6.4
v 5.3 -3.9 -6.4
v 6 -3.9 -6.4
v 1.3 -3.9 -6.5
v 1.9 -3.9 -6.5
v 5.3 -3.9 -6.5
v 5.9 -3.9 -6.5
v 1.3 -3.9 -7.1
v 1.9 -3.9 -7.1
v 5.2 -3.9 -7.1
v 5.9 -3.9 -7.1
v 1.2 -3.9 -7.2
v 1.9 -3.9 -7.2
v 5.2 -3.9 -7.2
v 6 -3.9 -7.2
v 1.3 -3.8 -6.5
v 2 -3.8 -6.5
v 5.2 -3.8 -6.5
v 5.9 -3.8 -6.5
v 1.3 -3.8 -7.1
v 2 -3.8 -7.1
v 5.2 -3.8 -7.1
v 5.9 -3.8 -7.1
v 3.3 3.8 -6.4
v 3.9 3.8 -6.4
v 3.2 3.8 -6.5
v 3.3 3.8 -6.5
v 3.9 3.8 -6.5
v 4 3.8 -6.5
v 3.2 3.8 -7.1
v 3.3 3.8 -7.1
v 3.9 3.8 -7.1
v 4 3.8 -7.1
v 3.3 3.8 -7.2
v 3.9 3.8 -7.2
v 3.3 4 -6.5
v 3.9 4 -6.5
v 3.4 4 -6.6
v 3.8 4 -6.6
v 3.4 4 -7
v 3.8 4 -7
v 3.3 4 -7.1
v 3.9 4 -7.1
v 3.4 4.2 -6.6
v 3.8 4.2 -6.6
v 3.5 4.2 -6.7
v 3.7 4.2 -6.7
v 3.5 4.2 -6.9
v 3.7 4.2 -6.9
v 3.4 4.2 -7
v 3.8 4.2 -7
v 3.5 4.4 -6.7
v 3.7 4.4 -6.7
v 3.5 4.4 -6.9
v 3.7 4.4 -6.9

# faces
f 3/3/1 2/3/1 1/3/1
f 4/3/1 2/3/1 3/3/1
f 7/3/1 6/3/1 5/3/1
f 8/3/1 6/3/1 7/3/1
f 11/3/1 10/3/1 9/3/1
f 12/3/1 10/3/1 11/3/1
f 15/3/1 14/3/1 13/3/1
f 16/3/1 14/3/1 15/3/1
f 21/3/1 18/3/1 17/3/1
f 22/3/1 18/3/1 21/3/1
f 23/3/1 20/3/1 19/3/1
f 24/3/1 20/3/1 23/3/1
f 27/1/1 26/1/1 25/1/1
f 28/1/1 26/1/1 27/1/1
f 31/1/1 30/1/1 29/1/1
f 32/1/1 30/1/1 31/1/1
f 35/1/1 34/1/1 33/1/1
f 36/1/1 34/1/1 35/1/1
f 40/1/1 38/1/1 37/1/1
f 41/1/1 38/1/1 40/1/1
f 44/1/1 40/1/1 39/1/1
f 45/1/1 42/1/1 41/1/1
f 47/1/1 44/1/1 43/1/1
f 48/1/1 40/1/1 44/1/1
f 48/1/1 44/1/1 47/1/1
f 49/1/1 46/1/1 45/1/1
f 49/1/1 45/1/1 41/1/1
f 50/1/1 46/1/1 49/1/1
f 51/1/1 40/1/1 48/1/1
f 52/1/1 40/1/1 51/1/1
f 55/1/1 49/1/1 41/1/1
f 56/1/1 49/1/1 55/1/1
f 57/2/1 54/2/1 53/2/1
f 58/2/1 54/2/1 57/2/1
f 59/2/1 54/2/1 58/2/1
f 62/3/1 61/3/1 60/3/1
f 63/3/1 61/3/1 62/3/1
f 66/1/1 65/1/1 64/1/1
f 67/1/1 65/1/1 66/1/1
f 72/2/1 69/2/1 68/2/1
f 73/2/1 69/2/1 72/2/1
f 74/2/1 71/2/1 70/2/1
f 75/2/1 71/2/1 74/2/1
f 79/3/1 77/3/1 76/3/1
f 80/3/1 77/3/1 79/3/1
f 82/3/1 79/3/1 78/3/1
f 83/3/1 79/3/1 82/3/1
f 84/3/1 81/3/1 80/3/1
f 85/3/1 81/3/1 84/3/1
f 86/3/1 84/3/1 83/3/1
f 87/3/1 84/3/1 86/3/1
f 90/3/1 89/3/1 88/3/1
f 91/3/1 89/3/1 90/3/1
f 94/3/1 93/3/1 92/3/1
f 95/3/1 93/3/1 94/3/1
f 99/3/1 97/3/1 96/3/1
f 100/3/1 97/3/1 99/3/1
f 100/3/1 99/3/1 98/3/1
f 101/3/1 97/3/1 100/3/1
f 102/3/1 100/3/1 98/3/1
f 103/3/1 100/3/1 102/3/1
f 106/3/1 105/3/1 104/3/1
f 107/3/1 105/3/1 106/3/1
f 108/3/2 109/3/2 110/3/2
f 110/3/2 109/3/2 111/3/2
f 112/3/2 113/3/2 116/3/2
f 116/3/2 113/3/2 117/3/2
f 114/3/2 115/3/2 118/3/2
f 118/3/2 115/3/2 119/3/2
f 120/3/2 121/3/2 122/3/2
f 122/3/2 121/3/2 123/3/2
f 124/3/2 125/3/2 126/3/2
f 126/3/2 125/3/2 127/3/2
f 128/3/2 129/3/2 130/3/2
f 130/3/2 129/3/2 131/3/2
f 132/1/2 133/1/2 134/1/2
f 134/1/2 133/1/2 135/1/2
f 136/2/2 137/2/2 140/2/2
f 140/2/2 137/2/2 141/2/2
f 138/2/2 139/2/2 142/2/2
f 142/2/2 139/2/2 143/2/2
f 144/3/2 145/3/2 147/3/2
f 147/3/2 145/3/2 148/3/2
f 146/3/2 147/3/2 150/3/2
f 150/3/2 147/3/2 151/3/2
f 148/3/2 149/3/2 152/3/2
f 152/3/2 149/3/2 153/3/2
f 151/3/2 152/3/2 154/3/2
f 154/3/2 152/3/2 155/3/2
f 156/1/2 157/1/2 159/1/2
f 159/1/2 157/1/2 160/1/2
f 158/1/2 159/1/2 163/1/2
f 160/1/2 161/1/2 164/1/2
f 162/1/2 163/1/2 166/1/2
f 163/1/2 159/1/2 167/1/2
f 166/1/2 163/1/2 167/1/2
f 164/1/2 165/1/2 168/1/2
f 160/1/2 164/1/2 168/1/2
f 168/1/2 165/1/2 169/1/2
f 167/1/2 159/1/2 170/1/2
f 170/1/2 159/1/2 171/1/2
f 160/1/2 168/1/2 174/1/2
f 174/1/2 168/1/2 175/1/2
f 172/2/2 173/2/2 176/2/2
f 176/2/2 173/2/2 177/2/2
f 177/2/2 173/2/2 178/2/2
f 179/3/2 180/3/2 181/3/2
f 181/3/2 180/3/2 182/3/2
f 183/1/2 184/1/2 185/1/2
f 185/1/2 184/1/2 186/1/2
f 187/1/2 188/1/2 189/1/2
f 189/1/2 188/1/2 190/1/2
f 191/1/2 192/1/2 193/1/2
f 193/1/2 192/1/2 194/1/2
f 195/3/2 196/3/2 199/3/2
f 199/3/2 196/3/2 200/3/2
f 197/3/2 198/3/2 201/3/2
f 201/3/2 198/3/2 202/3/2
f 203/3/2 204/3/2 206/3/2
f 205/3/2 206/3/2 207/3/2
f 206/3/2 204/3/2 208/3/2
f 207/3/2 206/3/2 208/3/2
f 209/3/2 210/3/2 211/3/2
f 211/3/2 210/3/2 212/3/2
f 213/3/2 214/3/2 215/3/2
f 215/3/2 214/3/2 216/3/2
f 217/3/2 218/3/2 219/3/2
f 219/3/2 218/3/2 220/3/2
f 223/1/3 222/1/3 221/1/3
f 224/1/3 222/1/3 223/1/3
f 229/1/3 226/1/3 225/1/3
f 230/1/3 226/1/3 229/1/3
f 231/1/3 228/1/3 227/1/3
f 232/1/3 228/1/3 231/1/3
f 236/3/3 234/3/3 233/3/3
f 238/3/3 236/3/3 235/3/3
f 239/3/3 238/3/3 237/3/3
f 240/3/3 234/3/3 236/3/3
f 240/3/3 238/3/3 239/3/3
f 240/3/3 236/3/3 238/3/3
f 241/3/3 239/3/3 237/3/3
f 242/3/3 239/3/3 241/3/3
f 246/1/3 244/1/3 243/1/3
f 247/1/3 244/1/3 246/1/3
f 250/1/3 246/1/3 245/1/3
f 250/1/3 248/1/3 247/1/3
f 250/1/3 247/1/3 246/1/3
f 251/1/3 248/1/3 250/1/3
f 256/2/3 253/2/3 252/2/3
f 257/2/3 253/2/3 256/2/3
f 258/3/3 255/3/3 254/3/3
f 259/3/3 255/3/3 258/3/3
f 260/1/3 250/1/3 249/1/3
f 261/1/3 250/1/3 260/1/3
f 263/1/3 262/1/3 261/1/3
f 264/1/3 262/1/3 263/1/3
f 265/1/3 262/1/3 264/1/3
f 266/1/3 262/1/3 265/1/3
f 267/1/3 265/1/3 264/1/3
f 268/1/3 265/1/3 267/1/3
f 269/4/3 242/4/3 241/4/3
f 270/4/3 242/4/3 269/4/3
f 271/3/3 270/3/3 269/3/3
f 273/3/3 271/3/3 269/3/3
f 273/3/3 272/3/3 271/3/3
f 274/3/3 272/3/3 273/3/3
f 275/3/3 272/3/3 274/3/3
f 276/3/3 272/3/3 275/3/3
f 277/3/3 272/3/3 276/3/3
f 278/3/3 272/3/3 277/3/3
f 283/3/3 282/3/3 281/3/3
f 284/3/3 282/3/3 283/3/3
f 285/3/3 282/3/3 284/3/3
f 287/3/3 280/3/3 279/3/3
f 288/3/3 287/3/3 286/3/3
f 289/3/3 280/3/3 287/3/3
f 289/3/3 287/3/3 288/3/3
f 290/3/3 288/3/3 286/3/3
f 291/3/3 288/3/3 290/3/3
f 298/2/3 293/2/3 292/2/3
f 299/2/3 293/2/3 298/2/3
f 300/4/3 291/4/3 290/4/3
f 301/3/3 295/3/3 294/3/3
f 302/3/3 295/3/3 301/3/3
f 304/1/3 297/1/3 296/1/3
f 305/1/3 297/1/3 304/1/3
f 308/3/3 301/3/3 300/3/3
f 308/4/3 300/4/3 290/4/3
f 309/3/3 301/3/3 308/3/3
f 310/3/3 303/3/3 302/3/3
f 311/3/3 303/3/3 310/3/3
f 312/2/3 307/2/3 306/2/3
f 313/2/3 307/2/3 312/2/3
f 314/3/3 310/3/3 309/3/3
f 315/3/3 310/3/3 314/3/3
f 316/4/3 308/4/3 290/4/3
f 317/4/3 308/4/3 316/4/3
f 318/3/3 317/3/3 316/3/3
f 320/3/3 318/3/3 316/3/3
f 320/3/3 319/3/3 318/3/3
f 321/3/3 319/3/3 320/3/3
f 324/3/3 323/3/3 322/3/3
f 325/3/3 323/3/3 324/3/3
f 326/3/3 319/3/3 321/3/3
f 327/3/3 319/3/3 326/3/3
f 330/3/3 329/3/3 328/3/3
f 331/3/3 329/3/3 330/3/3
f 332/4/3 331/4/3 330/4/3
f 335/3/3 334/3/3 333/3/3
f 336/3/3 334/3/3 335/3/3
f 337/4/3 331/4/3 332/4/3
f 338/4/3 331/4/3 337/4/3
f 339/4/3 331/4/3 338/4/3
f 340/3/3 339/3/3 338/3/3
f 341/3/3 339/3/3 340/3/3
f 344/3/3 343/3/3 342/3/3
f 345/3/3 343/3/3 344/3/3
f 346/3/4 347/3/4 348/3/4
f 348/3/4 347/3/4 349/3/4
f 350/3/4 351/3/4 352/3/4
f 352/3/4 351/3/4 353/3/4
f 356/3/4 357/3/4 358/3/4
f 358/3/4 357/3/4 359/3/4
f 354/3/4 355/3/4 361/3/4
f 360/3/4 361/3/4 362/3/4
f 361/3/4 355/3/4 363/3/4
f 362/3/4 361/3/4 363/3/4
f 356/3/4 358/3/4 364/3/4
f 364/3/4 358/3/4 365/3/4
f 360/3/4 362/3/4 366/3/4
f 366/3/4 362/3/4 367/3/4
f 364/4/4 365/4/4 369/4/4
f 368/2/4 369/2/4 374/2/4
f 369/4/4 365/4/4 375/4/4
f 374/2/4 369/2/4 375/2/4
f 366/4/4 367/4/4 376/4/4
f 370/3/4 371/3/4 377/3/4
f 377/3/4 371/3/4 378/3/4
f 372/1/4 373/1/4 380/1/4
f 380/1/4 373/1/4 381/1/4
f 375/4/4 365/4/4 383/4/4
f 366/4/4 376/4/4 384/4/4
f 376/3/4 377/3/4 384/3/4
f 384/3/4 377/3/4 385/3/4
f 378/3/4 379/3/4 386/3/4
f 386/3/4 379/3/4 387/3/4
f 382/2/4 383/2/4 388/2/4
f 383/4/4 365/4/4 389/4/4
f 388/2/4 383/2/4 389/2/4
f 385/3/4 386/3/4 390/3/4
f 390/3/4 386/3/4 391/3/4
f 389/4/4 365/4/4 392/4/4
f 392/4/4 365/4/4 393/4/4
f 366/4/4 384/4/4 394/4/4
f 394/4/4 384/4/4 395/4/4
f 394/3/4 395/3/4 396/3/4
f 396/3/4 395/3/4 397/3/4
f 392/3/4 393/3/4 400/3/4
f 392/3/4 400/3/4 402/3/4
f 400/3/4 401/3/4 402/3/4
f 402/3/4 401/3/4 403/3/4
f 398/3/4 399/3/4 404/3/4
f 404/3/4 399/3/4 405/3/4
f 406/3/4 407/3/4 409/3/4
f 408/3/4 409/3/4 411/3/4
f 410/3/4 411/3/4 412/3/4
f 409/3/4 407/3/4 413/3/4
f 412/3/4 411/3/4 413/3/4
f 411/3/4 409/3/4 413/3/4
f 410/3/4 412/3/4 414/3/4
f 414/3/4 412/3/4 415/3/4
f 416/1/4 417/1/4 419/1/4
f 419/1/4 417/1/4 420/1/4
f 418/1/4 419/1/4 423/1/4
f 420/1/4 421/1/4 423/1/4
f 419/1/4 420/1/4 423/1/4
f 423/1/4 421/1/4 424/1/4
f 425/2/4 426/2/4 429/2/4
f 429/2/4 426/2/4 430/2/4
f 427/3/4 428/3/4 431/3/4
f 431/3/4 428/3/4 432/3/4
f 422/1/4 423/1/4 433/1/4
f 433/1/4 423/1/4 434/1/4
f 434/1/4 435/1/4 436/1/4
f 436/1/4 435/1/4 437/1/4
f 437/1/4 435/1/4 438/1/4
f 438/1/4 435/1/4 439/1/4
f 437/1/4 438/1/4 440/1/4
f 440/1/4 438/1/4 441/1/4
f 414/4/4 415/4/4 442/4/4
f 442/4/4 415/4/4 443/4/4
f 442/3/4 443/3/4 444/3/4
f 442/3/4 444/3/4 446/3/4
f 444/3/4 445/3/4 446/3/4
f 446/3/4 445/3/4 447/3/4
f 447/3/4 445/3/4 448/3/4
f 448/3/4 445/3/4 449/3/4
f 449/3/4 445/3/4 450/3/4
f 450/3/4 445/3/4 451/3/4
f 452/1/4 453/1/4 456/1/4
f 456/1/4 453/1/4 457/1/4
f 454/1/4 455/1/4 458/1/4
f 458/1/4 455/1/4 459/1/4
f 460/1/4 461/1/4 462/1/4
f 462/1/4 461/1/4 463/1/4
f 466/1/5 465/1/5 464/1/5
f 467/1/5 465/1/5 466/1/5
f 470/1/5 469/1/5 468/1/5
f 471/1/5 469/1/5 470/1/5
f 472/1/5 470/1/5 468/1/5
f 473/1/5 469/1/5 471/1/5
f 474/1/5 472/1/5 468/1/5
f 474/1/5 473/1/5 472/1/5
f 475/1/5 469/1/5 473/1/5
f 475/1/5 473/1/5 474/1/5
f 479/1/5 477/1/5 476/1/5
f 480/1/5 477/1/5 479/1/5
f 482/1/5 479/1/5 478/1/5
f 483/1/5 479/1/5 482/1/5
f 484/1/5 481/1/5 480/1/5
f 485/1/5 481/1/5 484/1/5
f 486/1/5 484/1/5 483/1/5
f 487/1/5 484/1/5 486/1/5
f 490/1/5 489/1/5 488/1/5
f 491/1/5 489/1/5 490/1/5
f 496/1/5 493/1/5 492/1/5
f 497/1/5 493/1/5 496/1/5
f 498/1/5 495/1/5 494/1/5
f 499/1/5 495/1/5 498/1/5
f 502/1/5 501/1/5 500/1/5
f 503/1/5 501/1/5 502/1/5
f 506/3/5 505/3/5 504/3/5
f 512/3/5 506/3/5 504/3/5
f 512/3/5 507/3/5 506/3/5
f 513/4/5 508/4/5 507/4/5
f 513/3/5 507/3/5 512/3/5
f 514/4/5 508/4/5 513/4/5
f 515/4/5 510/4/5 509/4/5
f 516/3/5 511/3/5 510/3/5
f 516/4/5 510/4/5 515/4/5
f 517/3/5 511/3/5 516/3/5
f 522/3/5 519/3/5 518/3/5
f 523/3/5 521/3/5 520/3/5
f 525/3/5 519/3/5 522/3/5
f 526/4/5 520/4/5 519/4/5
f 526/3/5 519/3/5 525/3/5
f 527/3/5 524/3/5 523/3/5
f 527/4/5 520/4/5 526/4/5
f 527/3/5 523/3/5 520/3/5
f 528/3/5 524/3/5 527/3/5
f 533/3/5 530/3/5 529/3/5
f 534/4/5 531/4/5 530/4/5
f 534/3/5 530/3/5 533/3/5
f 535/3/5 532/3/5 531/3/5
f 535/4/5 531/4/5 534/4/5
f 536/3/5 532/3/5 535/3/5
f 541/3/5 538/3/5 537/3/5
f 542/3/5 538/3/5 541/3/5
f 543/3/5 540/3/5 539/3/5
f 544/3/5 540/3/5 543/3/5
f 545/3/5 541/3/5 537/3/5
f 548/3/5 540/3/5 544/3/5
f 549/3/5 546/3/5 545/3/5
f 549/3/5 545/3/5 537/3/5
f 550/3/5 546/3/5 549/3/5
f 551/3/5 548/3/5 547/3/5
f 552/3/5 540/3/5 548/3/5
f 552/3/5 548/3/5 551/3/5
f 560/3/5 556/3/5 555/3/5
f 561/3/5 556/3/5 560/3/5
f 563/3/5 560/3/5 559/3/5
f 564/3/5 560/3/5 563/3/5
f 565/3/5 562/3/5 561/3/5
f 566/3/5 562/3/5 565/3/5
f 567/3/5 554/3/5 553/3/5
f 568/3/5 554/3/5 567/3/5
f 569/3/5 565/3/5 564/3/5
f 570/3/5 565/3/5 569/3/5
f 571/3/5 558/3/5 557/3/5
f 572/3/5 558/3/5 571/3/5
f 573/1/6 574/1/6 575/1/6
f 575/1/6 574/1/6 576/1/6
f 577/1/6 578/1/6 581/1/6
f 581/1/6 578/1/6 582/1/6
f 579/1/6 580/1/6 583/1/6
f 583/1/6 580/1/6 584/1/6
f 585/1/6 586/1/6 587/1/6
f 587/1/6 586/1/6 588/1/6
f 589/1/6 590/1/6 592/1/6
f 592/1/6 590/1/6 593/1/6
f 593/1/6 590/1/6 594/1/6
f 594/1/6 590/1/6 595/1/6
f 591/1/6 592/1/6 597/1/6
f 592/1/6 593/1/6 597/1/6
f 597/1/6 593/1/6 598/1/6
f 595/1/6 596/1/6 599/1/6
f 594/1/6 595/1/6 599/1/6
f 599/1/6 596/1/6 600/1/6
f 591/1/6 597/1/6 601/1/6
f 600/1/6 596/1/6 604/1/6
f 601/1/6 602/1/6 605/1/6
f 591/1/6 601/1/6 605/1/6
f 605/1/6 602/1/6 606/1/6
f 606/1/6 602/1/6 607/1/6
f 603/1/6 604/1/6 608/1/6
f 604/1/6 596/1/6 609/1/6
f 608/1/6 604/1/6 609/1/6
f 609/1/6 596/1/6 610/1/6
f 606/1/6 607/1/6 611/1/6
f 607/1/6 608/1/6 611/1/6
f 608/1/6 609/1/6 611/1/6
f 611/1/6 609/1/6 612/1/6
f 613/2/6 614/2/6 616/2/6
f 616/2/6 614/2/6 617/2/6
f 615/2/6 616/2/6 619/2/6
f 617/2/6 618/2/6 619/2/6
f 616/2/6 617/2/6 619/2/6
f 619/2/6 618/2/6 620/2/6
f 621/2/6 622/2/6 623/2/6
f 623/2/6 622/2/6 624/2/6
f 625/3/6 626/3/6 629/3/6
f 626/4/6 627/4/6 630/4/6
f 629/3/6 626/3/6 630/3/6
f 627/3/6 628/3/6 631/3/6
f 630/4/6 627/4/6 631/4/6
f 631/3/6 628/3/6 632/3/6
f 633/3/6 634/3/6 637/3/6
f 634/4/6 635/4/6 638/4/6
f 637/3/6 634/3/6 638/3/6
f 635/3/6 636/3/6 639/3/6
f 638/4/6 635/4/6 639/4/6
f 639/3/6 636/3/6 640/3/6
f 641/3/6 642/3/6 647/3/6
f 642/4/6 643/4/6 648/4/6
f 647/3/6 642/3/6 648/3/6
f 648/4/6 643/4/6 649/4/6
f 644/4/6 645/4/6 650/4/6
f 645/3/6 646/3/6 651/3/6
f 650/4/6 645/4/6 651/4/6
f 651/3/6 646/3/6 652/3/6
f 653/3/6 654/3/6 657/3/6
f 657/3/6 654/3/6 658/3/6
f 655/3/6 656/3/6 659/3/6
f 659/3/6 656/3/6 660/3/6
f 653/3/6 657/3/6 661/3/6
f 660/3/6 656/3/6 664/3/6
f 661/3/6 662/3/6 665/3/6
f 653/3/6 661/3/6 665/3/6
f 665/3/6 662/3/6 666/3/6
f 663/3/6 664/3/6 667/3/6
f 664/3/6 656/3/6 668/3/6
f 667/3/6 664/3/6 668/3/6
f 669/3/6 670/3/6 673/3/6
f 673/3/6 670/3/6 674/3/6
f 671/3/6 672/3/6 675/3/6
f 675/3/6 672/3/6 676/3/6
f 677/3/6 678/3/6 680/3/6
f 680/3/6 678/3/6 681/3/6
f 679/3/6 680/3/6 683/3/6
f 683/3/6 680/3/6 684/3/6
f 681/3/6 682/3/6 685/3/6
f 685/3/6 682/3/6 686/3/6
f 684/3/6 685/3/6 687/3/6
f 687/3/6 685/3/6 688/3/6
f 689/3/6 690/3/6 691/3/6
f 691/3/6 690/3/6 692/3/6
f 689/3/6 691/3/6 693/3/6
f 692/3/6 690/3/6 694/3/6
f 689/3/6 693/3/6 695/3/6
f 693/3/6 694/3/6 695/3/6
f 694/3/6 690/3/6 696/3/6
f 695/3/6 694/3/6 696/3/6
f 697/3/6 698/3/6 699/3/6
f 699/3/6 698/3/6 700/3/6
f 697/3/6 699/3/6 701/3/6
f 700/3/6 698/3/6 702/3/6
f 697/3/6 701/3/6 703/3/6
f 701/3/6 702/3/6 703/3/6
f 702/3/6 698/3/6 704/3/6
f 703/3/6 702/3/6 704/3/6
f 705/3/6 706/3/6 707/3/6
f 707/3/6 706/3/6 708/3/6
