# MagicaVoxel @ Ephtracy

# group
o 

# material
mtllib axe.mtl
usemtl palette

# normals
vn -1 0 0
vn 1 0 0
vn 0 0 1
vn 0 0 -1
vn 0 -1 0
vn 0 1 0

# texcoords
vt 0.0644531 0.5
vt 0.958984 0.5
vt 0.962891 0.5
vt 0.966797 0.5

# verts
v -2.1 1.8 1.1
v -2.1 1.8 1
v -2.1 1.8 0.9
v -2.1 1.9 1.1
v -2.1 1.9 1
v -2.1 1.9 0.9
v -2 1.7 1.1
v -2 1.7 0.9
v -2 1.8 1.1
v -2 1.8 1
v -2 1.8 0.9
v -2 1.9 1.1
v -2 1.9 1
v -2 1.9 0.9
v -2 2 1.1
v -2 2 0.9
v -1.9 1.6 1.1
v -1.9 1.6 0.9
v -1.9 1.7 1.1
v -1.9 1.7 0.9
v -1.9 2 1.1
v -1.9 2 0.9
v -1.9 2.1 1.1
v -1.9 2.1 0.9
v -1.8 1.5 1.1
v -1.8 1.5 0.9
v -1.8 1.6 1.1
v -1.8 1.6 0.9
v -1.8 2.1 1.1
v -1.8 2.1 0.9
v -1.8 2.2 1.1
v -1.8 2.2 0.9
v -1.3 0 1.1
v -1.3 0 0.9
v -1.3 0.1 1.1
v -1.3 0.1 1
v -1.3 0.2 1.1
v -1.3 0.2 1
v -1.3 0.4 1.1
v -1.3 0.4 0.9
v -1.3 1.6 1.1
v -1.3 1.6 0.9
v -1.3 2.1 1.1
v -1.3 2.1 0.9
v -1.3 2.2 1.1
v -1.3 2.2 0.9
v -1.5 1.5 1.1
v -1.5 1.5 0.9
v -1.5 1.6 1.1
v -1.5 1.6 0.9
v -1.5 2.1 1.1
v -1.5 2.1 0.9
v -1.5 2.2 1.1
v -1.5 2.2 0.9
v -1.1 0 1.1
v -1.1 0 0.9
v -1.1 0.3 1.1
v -1.1 0.3 1
v -1.1 0.4 1.1
v -1.1 0.4 1
v -1.1 0.4 0.9
v -1.1 1.7 1.1
v -1.1 1.7 0.9
v -1.1 1.8 1.1
v -1.1 1.8 0.9
v -1.1 2 1.1
v -1.1 2 0.9
v -1.1 2.2 1.1
v -1.1 2.2 0.9
v -1 1.9 1.1
v -1 1.9 0.9
v -1 2 1.1
v -1 2 0.9
v -0.9 1.8 1.1
v -0.9 1.8 0.9
v -0.9 1.9 1.1
v -0.9 1.9 0.9
v -2.1 1.8 1.1
v -2.1 1.9 1.1
v -2 1.7 1.1
v -2 1.8 1.1
v -2 1.9 1.1
v -2 2 1.1
v -1.9 1.6 1.1
v -1.9 1.7 1.1
v -1.9 2 1.1
v -1.9 2.1 1.1
v -1.8 1.5 1.1
v -1.8 1.6 1.1
v -1.8 1.8 1.1
v -1.8 1.9 1.1
v -1.8 2.1 1.1
v -1.8 2.2 1.1
v -1.7 1.6 1.1
v -1.7 1.7 1.1
v -1.7 1.8 1.1
v -1.7 1.9 1.1
v -1.7 2 1.1
v -1.7 2.1 1.1
v -1.6 1.6 1.1
v -1.6 1.7 1.1
v -1.6 2 1.1
v -1.6 2.1 1.1
v -1.5 1.5 1.1
v -1.5 1.6 1.1
v -1.5 1.8 1.1
v -1.5 1.9 1.1
v -1.5 2.1 1.1
v -1.5 2.2 1.1
v -1.4 1.8 1.1
v -1.4 1.9 1.1
v -1.3 0 1.1
v -1.3 0.1 1.1
v -1.3 0.2 1.1
v -1.3 0.4 1.1
v -1.3 1.6 1.1
v -1.3 1.7 1.1
v -1.3 2 1.1
v -1.3 2.1 1.1
v -1.3 2.2 1.1
v -1.2 0.1 1.1
v -1.2 0.2 1.1
v -1.2 0.3 1.1
v -1.2 0.4 1.1
v -1.1 0 1.1
v -1.1 0.3 1.1
v -1.1 0.4 1.1
v -1.1 1.7 1.1
v -1.1 1.8 1.1
v -1.1 2 1.1
v -1.1 2.2 1.1
v -1 1.9 1.1
v -1 2 1.1
v -0.9 1.8 1.1
v -0.9 1.9 1.1
v -2.1 1.8 0.9
v -2.1 1.9 0.9
v -2 1.7 0.9
v -2 1.8 0.9
v -2 1.9 0.9
v -2 2 0.9
v -1.9 1.6 0.9
v -1.9 1.7 0.9
v -1.9 2 0.9
v -1.9 2.1 0.9
v -1.8 1.5 0.9
v -1.8 1.6 0.9
v -1.8 1.7 0.9
v -1.8 1.9 0.9
v -1.8 2 0.9
v -1.8 2.1 0.9
v -1.8 2.2 0.9
v -1.7 1.6 0.9
v -1.7 1.7 0.9
v -1.7 1.9 0.9
v -1.7 2 0.9
v -1.6 1.9 0.9
v -1.6 2 0.9
v -1.5 1.5 0.9
v -1.5 1.6 0.9
v -1.5 1.7 0.9
v -1.5 1.8 0.9
v -1.5 1.9 0.9
v -1.5 2 0.9
v -1.5 2.1 0.9
v -1.5 2.2 0.9
v -1.4 1.7 0.9
v -1.4 1.8 0.9
v -1.3 0 0.9
v -1.3 0.4 0.9
v -1.3 1.6 0.9
v -1.3 1.7 0.9
v -1.3 2 0.9
v -1.3 2.1 0.9
v -1.3 2.2 0.9
v -1.1 0 0.9
v -1.1 0.4 0.9
v -1.1 1.7 0.9
v -1.1 1.8 0.9
v -1.1 2 0.9
v -1.1 2.2 0.9
v -1 1.9 0.9
v -1 2 0.9
v -0.9 1.8 0.9
v -0.9 1.9 0.9
v -1.3 0 1.1
v -1.1 0 1.1
v -1.3 0 0.9
v -1.1 0 0.9
v -1.8 1.5 1.1
v -1.5 1.5 1.1
v -1.8 1.5 0.9
v -1.5 1.5 0.9
v -1.9 1.6 1.1
v -1.8 1.6 1.1
v -1.5 1.6 1.1
v -1.3 1.6 1.1
v -1.9 1.6 0.9
v -1.8 1.6 0.9
v -1.5 1.6 0.9
v -1.3 1.6 0.9
v -2 1.7 1.1
v -1.9 1.7 1.1
v -2 1.7 0.9
v -1.9 1.7 0.9
v -2.1 1.8 1.1
v -2 1.8 1.1
v -1.1 1.8 1.1
v -0.9 1.8 1.1
v -2.1 1.8 1
v -2 1.8 1
v -2.1 1.8 0.9
v -2 1.8 0.9
v -1.1 1.8 0.9
v -0.9 1.8 0.9
v -2.1 1.9 1.1
v -2 1.9 1.1
v -1 1.9 1.1
v -0.9 1.9 1.1
v -2.1 1.9 1
v -2 1.9 1
v -2.1 1.9 0.9
v -2 1.9 0.9
v -1 1.9 0.9
v -0.9 1.9 0.9
v -2 2 1.1
v -1.9 2 1.1
v -1.1 2 1.1
v -1 2 1.1
v -2 2 0.9
v -1.9 2 0.9
v -1.1 2 0.9
v -1 2 0.9
v -1.9 2.1 1.1
v -1.8 2.1 1.1
v -1.5 2.1 1.1
v -1.3 2.1 1.1
v -1.9 2.1 0.9
v -1.8 2.1 0.9
v -1.5 2.1 0.9
v -1.3 2.1 0.9
v -1.8 2.2 1.1
v -1.5 2.2 1.1
v -1.3 2.2 1.1
v -1.1 2.2 1.1
v -1.8 2.2 0.9
v -1.5 2.2 0.9
v -1.3 2.2 0.9
v -1.1 2.2 0.9

# faces
f 4/3/1 2/3/1 1/3/1
f 5/2/1 3/2/1 2/2/1
f 5/3/1 2/3/1 4/3/1
f 6/2/1 3/2/1 5/2/1
f 9/3/1 8/3/1 7/3/1
f 10/3/1 8/3/1 9/3/1
f 11/3/1 8/3/1 10/3/1
f 15/3/1 13/3/1 12/3/1
f 15/3/1 14/3/1 13/3/1
f 16/3/1 14/3/1 15/3/1
f 19/3/1 18/3/1 17/3/1
f 20/3/1 18/3/1 19/3/1
f 23/3/1 22/3/1 21/3/1
f 24/3/1 22/3/1 23/3/1
f 27/3/1 26/3/1 25/3/1
f 28/3/1 26/3/1 27/3/1
f 31/3/1 30/3/1 29/3/1
f 32/3/1 30/3/1 31/3/1
f 35/3/1 34/3/1 33/3/1
f 36/3/1 34/3/1 35/3/1
f 37/2/1 36/2/1 35/2/1
f 38/3/1 34/3/1 36/3/1
f 38/2/1 36/2/1 37/2/1
f 39/3/1 38/3/1 37/3/1
f 40/3/1 34/3/1 38/3/1
f 40/3/1 38/3/1 39/3/1
f 41/1/1 40/1/1 39/1/1
f 42/1/1 40/1/1 41/1/1
f 45/1/1 44/1/1 43/1/1
f 46/1/1 44/1/1 45/1/1
f 47/3/2 48/3/2 49/3/2
f 49/3/2 48/3/2 50/3/2
f 51/3/2 52/3/2 53/3/2
f 53/3/2 52/3/2 54/3/2
f 55/3/2 56/3/2 57/3/2
f 57/3/2 56/3/2 58/3/2
f 57/2/2 58/2/2 59/2/2
f 58/3/2 56/3/2 60/3/2
f 59/2/2 58/2/2 60/2/2
f 60/3/2 56/3/2 61/3/2
f 59/1/2 60/1/2 62/1/2
f 60/1/2 61/1/2 62/1/2
f 62/1/2 61/1/2 63/1/2
f 62/3/2 63/3/2 64/3/2
f 64/3/2 63/3/2 65/3/2
f 66/1/2 67/1/2 68/1/2
f 68/1/2 67/1/2 69/1/2
f 70/4/2 71/4/2 72/4/2
f 72/4/2 71/4/2 73/4/2
f 74/4/2 75/4/2 76/4/2
f 76/4/2 75/4/2 77/4/2
f 81/3/3 79/3/3 78/3/3
f 82/3/3 79/3/3 81/3/3
f 85/3/3 81/3/3 80/3/3
f 85/3/3 83/3/3 82/3/3
f 85/3/3 82/3/3 81/3/3
f 86/3/3 83/3/3 85/3/3
f 89/3/3 85/3/3 84/3/3
f 89/3/3 87/3/3 86/3/3
f 89/3/3 86/3/3 85/3/3
f 90/3/3 87/3/3 89/3/3
f 91/3/3 87/3/3 90/3/3
f 92/3/3 87/3/3 91/3/3
f 94/3/3 89/3/3 88/3/3
f 94/3/3 90/3/3 89/3/3
f 95/3/3 90/3/3 94/3/3
f 96/2/3 91/2/3 90/2/3
f 96/3/3 90/3/3 95/3/3
f 97/3/3 93/3/3 92/3/3
f 97/2/3 91/2/3 96/2/3
f 97/3/3 92/3/3 91/3/3
f 98/3/3 93/3/3 97/3/3
f 99/3/3 93/3/3 98/3/3
f 100/3/3 94/3/3 88/3/3
f 100/2/3 95/2/3 94/2/3
f 101/3/3 96/3/3 95/3/3
f 101/2/3 95/2/3 100/2/3
f 101/3/3 97/3/3 96/3/3
f 101/3/3 98/3/3 97/3/3
f 102/2/3 99/2/3 98/2/3
f 102/3/3 98/3/3 101/3/3
f 103/3/3 93/3/3 99/3/3
f 103/2/3 99/2/3 102/2/3
f 104/3/3 100/3/3 88/3/3
f 104/3/3 102/3/3 101/3/3
f 104/3/3 103/3/3 102/3/3
f 104/3/3 101/3/3 100/3/3
f 105/3/3 103/3/3 104/3/3
f 106/3/3 103/3/3 105/3/3
f 107/3/3 103/3/3 106/3/3
f 108/3/3 93/3/3 103/3/3
f 108/3/3 103/3/3 107/3/3
f 109/3/3 93/3/3 108/3/3
f 110/2/3 107/2/3 106/2/3
f 110/3/3 106/3/3 105/3/3
f 111/3/3 108/3/3 107/3/3
f 111/2/3 107/2/3 110/2/3
f 116/3/3 110/3/3 105/3/3
f 116/3/3 111/3/3 110/3/3
f 117/3/3 111/3/3 116/3/3
f 118/3/3 108/3/3 111/3/3
f 118/3/3 111/3/3 117/3/3
f 119/3/3 108/3/3 118/3/3
f 121/2/3 114/2/3 113/2/3
f 121/3/3 113/3/3 112/3/3
f 122/3/3 115/3/3 114/3/3
f 122/2/3 114/2/3 121/2/3
f 123/3/3 115/3/3 122/3/3
f 124/1/3 117/1/3 116/1/3
f 124/3/3 115/3/3 123/3/3
f 124/1/3 116/1/3 115/1/3
f 125/3/3 121/3/3 112/3/3
f 125/3/3 123/3/3 122/3/3
f 125/3/3 122/3/3 121/3/3
f 126/2/3 124/2/3 123/2/3
f 126/3/3 123/3/3 125/3/3
f 127/1/3 117/1/3 124/1/3
f 127/2/3 124/2/3 126/2/3
f 128/3/3 118/3/3 117/3/3
f 128/1/3 117/1/3 127/1/3
f 129/3/3 118/3/3 128/3/3
f 130/1/3 120/1/3 119/1/3
f 130/3/3 118/3/3 129/3/3
f 130/1/3 119/1/3 118/1/3
f 131/1/3 120/1/3 130/1/3
f 132/4/3 130/4/3 129/4/3
f 133/4/3 130/4/3 132/4/3
f 134/4/3 132/4/3 129/4/3
f 135/4/3 132/4/3 134/4/3
f 136/2/4 137/2/4 139/2/4
f 139/2/4 137/2/4 140/2/4
f 138/3/4 139/3/4 143/3/4
f 140/3/4 141/3/4 143/3/4
f 139/3/4 140/3/4 143/3/4
f 143/3/4 141/3/4 144/3/4
f 142/3/4 143/3/4 147/3/4
f 144/3/4 145/3/4 147/3/4
f 143/3/4 144/3/4 147/3/4
f 147/3/4 145/3/4 148/3/4
f 148/3/4 145/3/4 149/3/4
f 149/3/4 145/3/4 150/3/4
f 150/3/4 145/3/4 151/3/4
f 146/3/4 147/3/4 153/3/4
f 147/2/4 148/2/4 153/2/4
f 148/3/4 149/3/4 154/3/4
f 153/2/4 148/2/4 154/2/4
f 149/2/4 150/2/4 155/2/4
f 154/3/4 149/3/4 155/3/4
f 151/3/4 152/3/4 156/3/4
f 155/2/4 150/2/4 156/2/4
f 150/3/4 151/3/4 156/3/4
f 154/3/4 155/3/4 157/3/4
f 153/3/4 154/3/4 157/3/4
f 155/3/4 156/3/4 157/3/4
f 156/3/4 152/3/4 158/3/4
f 157/3/4 156/3/4 158/3/4
f 153/3/4 157/3/4 159/3/4
f 146/3/4 153/3/4 159/3/4
f 159/3/4 157/3/4 160/3/4
f 160/3/4 157/3/4 161/3/4
f 161/3/4 157/3/4 162/3/4
f 157/2/4 158/2/4 163/2/4
f 162/3/4 157/3/4 163/3/4
f 158/3/4 152/3/4 164/3/4
f 163/2/4 158/2/4 164/2/4
f 164/3/4 152/3/4 165/3/4
f 165/3/4 152/3/4 166/3/4
f 161/2/4 162/2/4 167/2/4
f 160/3/4 161/3/4 167/3/4
f 162/3/4 163/3/4 168/3/4
f 167/2/4 162/2/4 168/2/4
f 164/3/4 165/3/4 168/3/4
f 163/3/4 164/3/4 168/3/4
f 160/3/4 167/3/4 171/3/4
f 167/3/4 168/3/4 171/3/4
f 171/3/4 168/3/4 172/3/4
f 168/3/4 165/3/4 173/3/4
f 172/3/4 168/3/4 173/3/4
f 173/3/4 165/3/4 174/3/4
f 169/3/4 170/3/4 176/3/4
f 171/1/4 172/1/4 177/1/4
f 176/3/4 170/3/4 177/3/4
f 170/1/4 171/1/4 177/1/4
f 172/3/4 173/3/4 178/3/4
f 177/1/4 172/1/4 178/1/4
f 178/3/4 173/3/4 179/3/4
f 174/1/4 175/1/4 180/1/4
f 179/3/4 173/3/4 180/3/4
f 173/1/4 174/1/4 180/1/4
f 180/1/4 175/1/4 181/1/4
f 179/4/4 180/4/4 182/4/4
f 182/4/4 180/4/4 183/4/4
f 179/4/4 182/4/4 184/4/4
f 184/4/4 182/4/4 185/4/4
f 188/3/5 187/3/5 186/3/5
f 189/3/5 187/3/5 188/3/5
f 192/3/5 191/3/5 190/3/5
f 193/3/5 191/3/5 192/3/5
f 198/3/5 195/3/5 194/3/5
f 199/3/5 195/3/5 198/3/5
f 200/3/5 197/3/5 196/3/5
f 201/3/5 197/3/5 200/3/5
f 204/3/5 203/3/5 202/3/5
f 205/3/5 203/3/5 204/3/5
f 210/3/5 207/3/5 206/3/5
f 211/3/5 207/3/5 210/3/5
f 212/2/5 211/2/5 210/2/5
f 213/2/5 211/2/5 212/2/5
f 214/4/5 209/4/5 208/4/5
f 215/4/5 209/4/5 214/4/5
f 216/3/6 217/3/6 220/3/6
f 220/3/6 217/3/6 221/3/6
f 220/2/6 221/2/6 222/2/6
f 222/2/6 221/2/6 223/2/6
f 218/4/6 219/4/6 224/4/6
f 224/4/6 219/4/6 225/4/6
f 226/3/6 227/3/6 230/3/6
f 230/3/6 227/3/6 231/3/6
f 228/4/6 229/4/6 232/4/6
f 232/4/6 229/4/6 233/4/6
f 234/3/6 235/3/6 238/3/6
f 238/3/6 235/3/6 239/3/6
f 236/3/6 237/3/6 240/3/6
f 240/3/6 237/3/6 241/3/6
f 242/3/6 243/3/6 246/3/6
f 246/3/6 243/3/6 247/3/6
f 244/1/6 245/1/6 248/1/6
f 248/1/6 245/1/6 249/1/6
